<?xml version="1.0" encoding="utf-8"?>
<!-- Generator: Adobe Illustrator 25.3.1, SVG Export Plug-In . SVG Version: 6.00 Build 0)  -->
<svg version="1.1" id="レイヤー_1" xmlns="http://www.w3.org/2000/svg" xmlns:xlink="http://www.w3.org/1999/xlink" x="0px"
	 y="0px" viewBox="0 0 40 40" style="enable-background:new 0 0 40 40;" xml:space="preserve">
<style type="text/css">
	.st0{fill:#AE0000;}
	.st1{fill:#202020;}
	.st2{fill:#EAEAEA;}
	.st3{fill:#BFBFB8;}
</style>
<g>
	<g>
		<path class="st0" d="M31.6,38.5H8.4c-1,0-1.9-0.8-1.9-1.9V3.4c0-1,0.8-1.9,1.9-1.9h23.2c1,0,1.9,0.8,1.9,1.9v33.2
			C33.5,37.7,32.6,38.5,31.6,38.5z"/>
	</g>
	<rect x="19.1" y="9.9" class="st1" width="5.6" height="3"/>
	<g>
		<g>
			<g>
				<g>
					<path class="st2" d="M14.3,28.3h-1.9v-0.7h-1.8v0.7H8.8v-3.3h5.5V28.3z"/>
				</g>
			</g>
		</g>
		<g>
			<g>
				<g>
					<path class="st2" d="M22.8,28.3h-1.9v-0.7h-1.8v0.7h-1.9v-3.3h5.5V28.3z"/>
				</g>
			</g>
		</g>
		<g>
			<g>
				<g>
					<path class="st2" d="M31.2,28.3h-1.9v-0.7h-1.8v0.7h-1.9v-3.3h5.5V28.3z"/>
				</g>
			</g>
		</g>
		<g>
			<g>
				<g>
					<path class="st2" d="M14.3,34.7h-1.9v-0.7h-1.8v0.7H8.8v-3.3h5.5V34.7z"/>
				</g>
			</g>
		</g>
		<g>
			<g>
				<g>
					<path class="st2" d="M22.8,34.7h-1.9v-0.7h-1.8v0.7h-1.9v-3.3h5.5V34.7z"/>
				</g>
			</g>
		</g>
		<g>
			<g>
				<g>
					<path class="st2" d="M31.2,34.7h-1.9v-0.7h-1.8v0.7h-1.9v-3.3h5.5V34.7z"/>
				</g>
			</g>
		</g>
	</g>
	<g>
		<path class="st3" d="M22.4,5.3h-4.7c-0.2,0-0.3-0.1-0.3-0.3V1.5h5.4V5C22.7,5.2,22.5,5.3,22.4,5.3z"/>
	</g>
	<rect x="17.3" y="16.3" class="st1" width="5.9" height="5.9"/>
</g>
</svg>
