<?xml version="1.0" encoding="utf-8"?>
<!-- Generator: Adobe Illustrator 25.3.1, SVG Export Plug-In . SVG Version: 6.00 Build 0)  -->
<svg version="1.1" id="レイヤー_1" xmlns="http://www.w3.org/2000/svg" xmlns:xlink="http://www.w3.org/1999/xlink" x="0px"
	 y="0px" viewBox="0 0 40 40" style="enable-background:new 0 0 40 40;" xml:space="preserve">
<style type="text/css">
	.st0{fill:#AE0000;}
	.st1{fill:#EFECEB;}
	.st2{fill:#D9DAD4;}
	.st3{fill:#22211D;}
</style>
<path class="st0" d="M19.9,1.8c-7.4,0-13.5,6.1-13.5,13.5c0,3,1,5.8,2.7,8.1v13.1c0,1.1,0.9,2.1,2.1,2.1h17.5c1.1,0,2.1-0.9,2.1-2.1
	V23.4c1.7-2.3,2.7-5.1,2.7-8.1C33.5,7.9,27.4,1.8,19.9,1.8z"/>
<g>
	<g>
		<g>
			<g>
				<path class="st1" d="M15.4,29.4h-1.5v-0.6h-1.5v0.6h-1.5v-2.6h4.5C15.4,26.8,15.4,29.4,15.4,29.4z"/>
			</g>
		</g>
	</g>
	<g>
		<g>
			<g>
				<path class="st1" d="M22.3,29.4h-1.5v-0.6h-1.5v0.6h-1.6v-2.6h4.5L22.3,29.4L22.3,29.4z"/>
			</g>
		</g>
	</g>
	<g>
		<g>
			<g>
				<path class="st1" d="M29.1,29.4h-1.5v-0.6h-1.5v0.6h-1.5v-2.6h4.5L29.1,29.4L29.1,29.4z"/>
			</g>
		</g>
	</g>
	<g>
		<g>
			<g>
				<path class="st1" d="M15.4,36.1h-1.5v-0.6h-1.5v0.6h-1.5v-2.7h4.5C15.4,33.4,15.4,36.1,15.4,36.1z"/>
			</g>
		</g>
	</g>
	<g>
		<g>
			<g>
				<path class="st1" d="M22.3,36.1h-1.5v-0.6h-1.5v0.6h-1.6v-2.7h4.5L22.3,36.1L22.3,36.1z"/>
			</g>
		</g>
	</g>
	<g>
		<g>
			<g>
				<path class="st1" d="M29.1,36.1h-1.5v-0.6h-1.5v0.6h-1.5v-2.7h4.5L29.1,36.1L29.1,36.1z"/>
			</g>
		</g>
	</g>
</g>
<g>
	<path class="st2" d="M22.1,4.9h-4.3c-0.2,0-0.3-0.1-0.3-0.3V1.4h4.9v3.2C22.4,4.8,22.2,4.9,22.1,4.9z"/>
</g>
<rect x="17.9" y="13.7" class="st3" width="4.3" height="4.3"/>
<rect x="20" y="8.3" class="st3" width="4.3" height="2.1"/>
</svg>
